<svg width="288" height="1178" viewBox="0 0 288 1178" fill="none" xmlns="http://www.w3.org/2000/svg">
<path d="M237.156 1178C264.954 1178 287.489 1155.47 287.489 1127.67C287.489 1099.87 264.954 1077.33 237.156 1077.33C205.686 1077.33 163.379 1041.31 163.379 973.743L163.379 665.962C163.379 654.466 159.444 643.317 152.228 634.368L115.647 589L152.228 543.632C159.443 534.683 163.379 523.534 163.379 512.038L163.379 204.257C163.379 136.708 205.728 100.667 237.156 100.667C264.954 100.667 287.489 78.1318 287.489 50.3334C287.489 22.5349 264.954 -1.97008e-06 237.156 -4.40028e-06C131.109 -1.36712e-05 62.7119 102.269 62.7119 204.257L62.7119 494.274L11.8071 557.406C-3.06031 575.845 -3.06031 602.155 11.8071 620.594L62.7119 683.727L62.7119 973.743C62.7119 1075.71 131.042 1178 237.156 1178Z" fill="black"/>
</svg>
