<svg width="287" height="1178" viewBox="0 0 287 1178" fill="none" xmlns="http://www.w3.org/2000/svg">
<path d="M50.3339 0C22.5356 0 0.000488281 22.535 0.000488281 50.3333C0.000488281 78.1317 22.5356 100.667 50.3339 100.667C81.8041 100.667 124.111 136.693 124.111 204.257L124.111 512.038C124.111 523.534 128.046 534.683 135.262 543.632L171.843 589L135.262 634.368C128.046 643.317 124.111 654.466 124.111 665.962L124.111 973.743C124.111 1041.29 81.7619 1077.33 50.3339 1077.33C22.5356 1077.33 0.000488281 1099.87 0.000488281 1127.67C0.000488281 1155.47 22.5356 1178 50.3339 1178C156.381 1178 224.778 1075.73 224.778 973.743L224.778 683.726L275.683 620.594C290.55 602.155 290.55 575.845 275.683 557.406L224.778 494.273L224.778 204.257C224.778 102.285 156.447 0 50.3339 0Z" fill="black"/>
</svg>
